# xmcd
#
# Track frame offsets: 
#        150
#        5988
#        25675
#        42374
#        61343
#        67692
#        87296
#        107330
#        118704
#        136078
#        141026
#        164881
#        182329
#        214185
#        220612
#
# Disc length: 3375 seconds
#
# Revision: 0
# Processed by: cddbd v1.5.2PL0 Copyright (c) Steve Scherf et al.
# Submitted via: ExactAudioCopy v0.99pb4
#
DISCID=ca0d2d0f
DTITLE=Slim Cessna's Auto Club - Cipher
DYEAR=1900
DGENRE=
TTITLE0=An Introduction To The Power Of Braces: Arms
TTITLE1=This Land Is Our Land Redux
TTITLE2=All About The Bullfrog In 3 Verses
TTITLE3=Americadio
TTITLE4=An Introduction To The Power Of Braces: Legs
TTITLE5=Children Of The Lord
TTITLE6=SCAC 101
TTITLE7=Ladies In The Know
TTITLE8=Boom Magalina Hagalina Boom
TTITLE9=An Introduction To The Power Of Braces: Teeth
TTITLE10=Jesus Is In My Body: My Body Has Let Me Down
TTITLE11=Red Pirate Of The Prairie
TTITLE12=Everyone Is Guilty #2
TTITLE13=An Introduction To The Power Of Braces: Faith
TTITLE14=That Fierce Cow Is Common Sense In A Country Dress
EXTD=
EXTT0=
EXTT1=
EXTT2=
EXTT3=
EXTT4=
EXTT5=
EXTT6=
EXTT7=
EXTT8=
EXTT9=
EXTT10=
EXTT11=
EXTT12=
EXTT13=
EXTT14=
PLAYORDER=
